<?xml version="1.0" encoding="UTF-8"?>
<svg id="Layer_2" data-name="Layer 2" xmlns="http://www.w3.org/2000/svg" viewBox="0 0 552.28 158.08">
  <g id="Layer_1-2" data-name="Layer 1">
    <path d="M139.71,0h-50.51v128.01H8.39V0H0v158.08h8.39v-21.68h80.81v21.68h8.39v-2.31h42.12v2.31h8.39V0h-8.39ZM139.71,147.39h-42.12v-10.99h42.12v10.99ZM139.71,128.01h-42.12V8.39h42.12v119.62Z"/>
    <g>
      <path d="M299.27,84.73v46.25h-8.61v-45.52c0-17.65-4.52-24.66-14.15-24.66-10.65,0-17.65,8.9-17.65,23.93v46.25h-8.61V25.93h8.61v38.08c3.94-6.86,10.5-11.38,19.84-11.38,13.13,0,20.57,9.63,20.57,32.1Z"/>
      <path d="M381.57,78.02v52.96h-7.44l-.73-7.15c-3.5,5.11-9.34,8.9-17.65,8.9-14.01,0-24.22-8.61-24.22-23.49s9.48-22.91,26.26-22.91h15.17v-8.17c0-11.23-5.25-17.22-15.17-17.22-8.75,0-14.74,4.96-15.32,13.42h-8.61c.58-13.13,10.07-21.74,24.22-21.74s23.49,9.78,23.49,25.39ZM372.96,109.39v-15.03h-15.47c-11.24,0-17.22,5.25-17.22,15.03s6.86,14.88,16.78,14.88,15.9-6.13,15.9-14.88Z"/>
      <path d="M468.82,81.37v22.03c0,19.41-9.92,29.33-23.78,29.33-7.44,0-14.01-3.21-18.09-8.9l-1.17,7.15h-7V25.35h8.46v35.89c4.23-5.84,10.94-8.61,17.8-8.61,14.74,0,23.78,9.78,23.78,28.74ZM460.06,81.37c0-14.59-5.69-20.72-16.92-20.72-9.63,0-15.9,8.46-15.9,20.72v22.32c0,14.3,7.15,21.01,15.9,21.01,10.65,0,16.92-6.27,16.92-21.3v-22.03Z"/>
      <path d="M552.28,54.38v76.6h-7.15l-1.46-9.48c-3.94,6.86-10.5,11.23-19.84,11.23-12.4,0-20.57-8.32-20.57-29.33v-49.02h8.61v47.71c0,15.47,4.09,22.47,14.15,22.47,10.65,0,17.65-8.9,17.65-23.78v-46.4h8.61Z"/>
    </g>
  </g>
</svg>